<svg width="11" height="7" viewBox="0 0 11 7" fill="black" xmlns="http://www.w3.org/2000/svg">
    <path d="M10.0922 0.372569L10.0923 0.372574C10.3255 0.60789 10.3255 0.989134 10.0922 1.22451L10.0922 1.22452L4.83125 6.52937L10.0922 0.372569ZM10.0922 0.372569C9.85872 0.137095 9.47978 0.137094 9.24625 0.372638M10.0922 0.372569L9.24625 0.372638M9.24625 0.372638C9.24625 0.37264 9.24625 0.372642 9.24625 0.372644M9.24625 0.372638L9.24625 0.372644M9.24625 0.372644L4.40827 5.25095L1.90852 2.73033C1.67493 2.49479 1.29605 2.49478 1.06252 2.73033C1.06252 2.73033 1.06252 2.73033 1.06252 2.73034L1.09803 2.76554M9.24625 0.372644L3.98529 6.52938M1.09803 2.76554C0.883992 2.98136 0.883992 3.33118 1.09803 3.547L4.0208 6.49419L3.98529 6.52938M1.09803 2.76554C1.31199 2.54972 1.65898 2.54972 1.87302 2.76554L4.37306 5.28645L1.09803 2.76554ZM3.98529 6.52938C3.9853 6.52939 3.9853 6.52939 3.9853 6.52939M3.98529 6.52938L3.9853 6.52939M3.9853 6.52939C4.10202 6.64715 4.25523 6.70603 4.40827 6.70603M3.9853 6.52939L4.40827 6.70603M4.40827 6.70603C4.56129 6.70603 4.71457 6.64716 4.83123 6.52939L4.40827 6.70603Z" fill="#03A9F4" stroke="#378613" stroke-width="0.1"/>
</svg>
